<svg id="Layer_1" data-name="Layer 1" xmlns="http://www.w3.org/2000/svg" viewBox="0 0 243.86 398.88"><defs><style>.cls-1{fill:#fff;}</style></defs><path class="cls-1" d="M202.46,23.4a17.93,17.93,0,1,1,0,35.86h-.9a18,18,0,0,1-12.21-30.34,18.39,18.39,0,0,1,13.11-5.52m0-23.4a41.35,41.35,0,0,0-1.92,82.66h1.92a41.33,41.33,0,0,0,0-82.66Z"/><path class="cls-1" d="M175,288.33a41.65,41.65,0,0,1,0,83.3H129.83a41.65,41.65,0,0,1,0-83.3H175m0-27.25H129.83a68.9,68.9,0,0,0,0,137.8H175a68.9,68.9,0,1,0,0-137.8Z"/><path class="cls-1" d="M175,127.26a41.65,41.65,0,1,1,0,83.3H68.9a41.65,41.65,0,0,1,0-83.3H175M175,100H68.9a68.9,68.9,0,0,0,0,137.8H175A68.9,68.9,0,1,0,175,100Z"/></svg>